<?xml version="1.0" encoding="UTF-8"?>
<svg id="Layer_2" data-name="Layer 2" xmlns="http://www.w3.org/2000/svg" xmlns:xlink="http://www.w3.org/1999/xlink" viewBox="0 0 150 150">
  <defs>
    <style>
      .cls-1 {
        fill: none;
      }

      .cls-2 {
        clip-path: url(#clippath);
      }
    </style>
    <clipPath id="clippath">
      <circle class="cls-1" cx="75" cy="75" r="75"/>
    </clipPath>
  </defs>
  <g id="Layer_1-2" data-name="Layer 1">
    <g class="cls-2">
      <g>
        <path d="M96.61,206.21c-12.18-.38-19.57-.24-28.36,9.39-4.52-9.5-8.47-18.25-12.25-27.64-5.88-14.62-12.3-28.5-19.26-42.59-3.87-7.86-4.19-14.88,1.7-21.15,4.14-4.4,9.14-7.14,15.21-8.14,11.72-1.92,23.78.93,32.65,8.83,6.22,5.53,8.18,14.29,4.12,21.5l-8.02,12.07c-.69,1.03-.45,2.66.06,3.62s1.96,1.63,3.39,1.51l7.92-.7c2.78-.25,5.49-.26,8.23.89-9.05,12.46-11.22,27.45-5.4,42.43Z"/>
        <path d="M63.17,61.66c-7.74,14.59-2.59,29.62,2.74,45.09-11.18-1.6-22.09,1.17-31.4,7.59-10.47-33.36-.07-69.66,27.81-89.87,4.74-3.44,10.95-4.75,13.79.03,5.63,9.47,3.52,21.58-5.14,28.63-3.09,2.51-5.87,4.87-7.81,8.53Z"/>
        <path d="M123.63,98.2c-8.31,9.97-18.05,18.25-29.37,25.04-6.12-7.95-14.24-13.16-23.96-15.71,10.75-5.53,19.6-13.22,26.63-23.07,5.91-8.31,10.31-17.04,14.41-26.4,1.18-3.34,4.66-5.86,8.31-4.83,11.49,3.26,18.95,15.2,14.42,27.23-2.38,6.62-5.88,12.34-10.43,17.74Z"/>
        <circle cx="76.78" cy="80.79" r="13.39"/>
      </g>
    </g>
  </g>
</svg>