<?xml version="1.0" encoding="UTF-8"?>
<svg id="Layer_2" data-name="Layer 2" xmlns="http://www.w3.org/2000/svg" viewBox="0 0 9.68 12.16">
  <defs>
    <style>
      .cls-1, .cls-2 {
        fill: #231f20;
      }

      .cls-3 {
        fill: #fff;
      }

      .cls-2 {
        stroke: #231f20;
        stroke-linecap: round;
        stroke-miterlimit: 10;
        stroke-width: .5px;
      }
    </style>
  </defs>
  <g id="Layer_1-2" data-name="Layer 1">
    <path class="cls-1" d="M.26,2.8c-.64,1.52.12,2.68,0,4.83,0,0-.04.94.23,1.7.05.15.12.3.2.45.12.22.59,1.13,1.55,1.7,1.81,1.07,5.34.96,6.91-.91.97-1.15.43-3.15,0-4.19-.3-.72-.57-.9-.85-1.82-.41-1.34-.07-1.79-.41-2.59C7.39.84,6.06.21,5.09.05,3.04-.29.96,1.14.26,2.8Z"/>
    <path class="cls-3" d="M1.17,3.34c-.51,1.27.1,2.25,0,4.04,0,0-.03.79.18,1.43.04.13.1.25.16.37.09.19.47.94,1.24,1.42,1.45.9,4.28.8,5.54-.76.78-.96.34-2.64,0-3.5-.24-.6-.46-.75-.69-1.53-.33-1.12-.06-1.5-.33-2.17-.39-.95-1.46-1.47-2.24-1.61-1.64-.29-3.31.91-3.87,2.3Z"/>
    <ellipse class="cls-1" cx="4.67" cy="6.31" rx=".46" ry=".47"/>
    <line class="cls-2" x1="7.83" y1="7.84" x2="4.84" y2="6.31"/>
    <line class="cls-2" x1="5.02" y1="2.62" x2="4.66" y2="5.97"/>
  </g>
</svg>