<svg width="2105" height="7085" viewBox="0 0 2105 7085" fill="none" xmlns="http://www.w3.org/2000/svg">
<path d="M479.792 10.1235L374.072 125.714C50.6522 479.329 137.574 1041.45 552.695 1280.86L751.369 1395.44C859.372 1457.73 992.339 1457.94 1100.54 1395.99C1309.64 1276.27 1574.39 1398.43 1619 1635.22L1686.19 1991.9C1730.11 2225.09 1634.53 2462.54 1441.31 2600.27L935.78 2960.59C684.431 3139.74 335.28 3080.01 157.782 2827.49L80.8983 2718.11C-5.55716 2595.11 -7.06838 2431.5 77.1004 2306.92C182.88 2150.37 391.213 2101.38 555.673 2194.4L581.363 2208.93C749.906 2304.26 824.276 2507.87 756.853 2689.39L447.707 3521.68C376.377 3713.71 420.792 3929.62 562.135 4077.9L610.345 4128.48C785.393 4312.13 1075.38 4321.46 1261.87 4149.44C1450.03 3975.89 1743.11 3987.16 1917.39 4174.65L1951.52 4211.37C2091.46 4361.93 2128.49 4581.28 2045.73 4769.44L1868.91 5171.42C1750.68 5440.19 1492.71 5620.84 1199.71 5640.05L1045.54 5650.15C968 5655.23 891.02 5633.93 827.128 5589.7L718.654 5514.61C576.595 5416.27 574.276 5207.07 714.12 5105.6C829.546 5021.85 991.493 5051.14 1070.28 5170.01L1624.5 6006.18C1707.72 6131.73 1720.54 6291.25 1658.45 6428.48C1591.85 6575.7 1449.56 6674.25 1288.33 6684.85L1233.55 6688.45C1043.35 6700.96 874.556 6814.76 791.649 6986.4L747.343 7078.12" stroke="black" stroke-width="30" stroke-linejoin="round"/>
</svg>
