<svg width="2086" height="7008" viewBox="0 0 2086 7008" fill="none" xmlns="http://www.w3.org/2000/svg">
<path d="M302.531 11.1499L613.218 290.735C993.897 633.305 1178.51 1313.74 690.339 1468.53C502.264 1528.16 312.062 1496.79 161.871 1436.28C57.3829 1394.19 6.51263 1281.97 16.1475 1169.74C32.5502 978.664 217.016 848.361 402.583 896.767L1061.49 1068.65C1359.55 1146.4 1567.53 1415.59 1567.53 1723.63V1796.17C1567.53 2158.95 1253.53 2441.96 892.701 2404.4C644.555 2378.57 405.598 2506.07 288.897 2726.58L273.748 2755.21C139.1 3009.63 185.027 3321.99 387.211 3526.89L527.487 3669.05C673.396 3816.91 872.47 3900.15 1080.21 3900.15H1399.03C1584.69 3900.15 1744.43 3768.84 1780.35 3586.69C1823.59 3367.42 1673.46 3156.95 1452.07 3126.45L1350.58 3112.47C1196.36 3091.23 1041.3 3145.26 933.67 3257.74L378.172 3838.31C309.083 3910.52 250.417 3992.02 203.873 4080.45L183.146 4119.83C137.436 4206.68 107.574 4300.98 94.9635 4398.32L77.8725 4530.23C33.779 4870.54 251.551 5189.94 584.456 5273.21L720.399 5307.21C881.21 5347.43 1051.05 5294.95 1161.13 5171.01C1315.65 4997.05 1578.11 4971.48 1763.3 5112.34L1848.78 5177.36C2007.74 5298.27 2090.42 5494.58 2065.86 5692.79L2045.13 5860.14C1997.36 6245.7 1695.4 6550.45 1310.3 6601.78L1165.54 6621.07C948.081 6650.05 745.291 6746.84 586 6897.69L482.031 6996.15" stroke="black" stroke-width="30" stroke-linejoin="round"/>
</svg>
