<?xml version="1.0" encoding="UTF-8"?>
<svg id="Layer_2" data-name="Layer 2" xmlns="http://www.w3.org/2000/svg" viewBox="0 0 64.96 74.62">
  <defs>
    <style>
      .cls-1 {
        stroke-miterlimit: 10;
      }

      .cls-1, .cls-2 {
        fill: none;
        stroke: #231f20;
        stroke-width: 3px;
      }

      .cls-2 {
        stroke-linecap: round;
        stroke-linejoin: round;
      }
    </style>
  </defs>
  <g id="Reference">
    <path class="cls-2" d="M26.71,46.28c-2.19-3.67-3.96-6.62-5.14-8.56-1.75-2.9-3.43-5.83-5.2-8.72-.73-1.18-1.92-3.43-4.31-7.92-.87-1.64-1.61-3.07-1.19-4.75.48-1.94,2.18-2.91,2.38-3.02,2.43-1.35,4.96-.09,5.14,0,11.21,18.63,16.83,27.95,16.85,27.94.02-.01-6.61-11.1-19.9-33.27-.7-2.1.1-4.4,1.93-5.62,1.7-1.13,3.98-1.14,5.73,0,.48.81,3.8,6.43,3.89,6.58,0,0,.03.05.03.05.2.36.97,1.63,1.09,1.84.08.13,12.73,21.54,14.66,24.8"/>
    <path class="cls-2" d="M17.66,30.8c-1.8-3.89-6.09-4.92-8.2-3.53-1.68,1.11-2.37,4-1.18,6.77,6.19,10.23,12.39,20.45,18.58,30.68l5.39,4.9c.95.56,10.32,6.49,19.38,1.58,4.35-2.35,9.77-8.79,9.77-8.79,1.71-3.27,2.03-6.31,2.07-8.07-.84-8.13-1.67-16.26-2.51-24.38-.33-3.16-.65-6.32-.98-9.47-.09-.2-1.16-2.64-3.56-3.03-2.04-.33-3.64,1.1-4.2,1.6-4.34,3.86-1.22,12.88-1.04,13.39-5.43-9.51-10.85-19.01-16.28-28.52-.17-.08-2.78-1.33-5.03,0-2.1,1.24-3,4.21-1.73,6.89"/>
    <path class="cls-1" d="M2.33,51.29c-.36,1.23-2.59,9.24,2.23,14.83.71.83,1.71,1.76,3.12,2.59"/>
    <path class="cls-1" d="M8.5,47.15c-.36,1.23-2.59,9.24,2.23,14.83.71.83,1.71,1.76,3.12,2.59"/>
  </g>
</svg>