<?xml version="1.0" encoding="UTF-8"?>
<svg id="Layer_2" data-name="Layer 2" xmlns="http://www.w3.org/2000/svg" viewBox="0 0 91.41 156.96">
  <g id="Layer_1-2" data-name="Layer 1">
    <g>
      <path d="M61.26,121.34c-4.79,7.48-15.36-.46-18.9,5.87l14.42,4.77c6.66,2.21,17.23,7.87,14.75,16.41-1.82,6.29-8.26,9.55-14.5,8.31-3.64-.72-6.91-1.58-10.18-3.44-8.94-5.12-18.51-15.73-19-26.22-.23-4.96,2.91-8.53,7.65-9.68s9.18-.61,14.29.08c-7.3-8.92-5.29-22.1,2.21-29.52,4.35-4.3,10.56-5.52,16.19-2.96,8.27,3.77,15.16,9.69,20.96,16.66,1.04,1.24,1.7,2.63,2.08,4.17.73,2.98-.71,5.82-3.56,7.04-4.84,2.07-10.26.66-14.02-2.94-1.52-1.45-7.76-7.77-9.44-6.68s-2.6,3.41-2.48,5.44l.49,8.39c.08,1.37-.23,3.18-.96,4.32Z"/>
      <path d="M40.49,112.54c-7.4-.24-11.98-.33-17.27,5.62-2.75-5.65-5.14-10.97-7.47-16.65-3.42-8.34-7.01-16.26-11.06-24.28-2.66-5.27-4.21-10.1.19-14.63,2.08-2.14,4.52-3.8,7.56-4.54,7.34-1.79,15.3-.26,21.13,4.45,4.53,3.66,5.9,9.71,2.56,14.46l-4.12,5.87c-.51.73-.72,2.49-.04,3.1,2.19,1.92,7.84-1,11.81.77-5.72,7.72-6.77,17.04-3.29,25.84Z"/>
      <path d="M17.92,29.87c-1.53,7.27,1.16,14.9,3.63,22.01-6.92-.82-13.38.68-19.09,4.59C-3.93,36.53,2.34,14.78,18.87,2.38c2.5-1.87,6.86-3.94,8.9-.62,3.85,6.26,1.96,13.96-3.84,18.18-3.29,2.4-5.19,6.05-6.01,9.94Z"/>
      <path d="M39.19,61.92c-3.79-4.84-8.67-7.89-14.71-9.52,7.06-3.46,12.71-8.63,17.19-15.07,3.24-4.71,5.66-9.61,8.06-14.83.78-2.44,3.17-3.86,5.7-2.91,5.77,2.18,10.36,7.98,8.55,14.74-.98,3.85-2.91,7.12-5.25,10.41-5.32,6.85-11.78,12.51-19.53,17.17Z"/>
      <circle cx="28.38" cy="36.15" r="8.12"/>
    </g>
  </g>
</svg>