<?xml version="1.0" encoding="UTF-8"?>
<svg xmlns="http://www.w3.org/2000/svg" viewBox="0 0 502.28 832.33">
  <g id="Layer_2" data-name="Layer 2">
    <g>
      <path d="M71.99,755.55c13.1-9.27,24.62-12.38,32-13.59,32.83-5.38,68.6,13.04,77.94,22.09,1.3,1.26,5.26,5.4,11.49,6.8,4.16.93,6.47,0,10.67,0,7.43,0,12.58,2.91,17.23,5.1,6.62,3.11,17.3,7.14,35.09,11.04v-67.11H71.99" style="fill: #754c24;"/>
      <path d="M437.45,755.55c-13.1-9.27-24.62-12.38-32-13.59-32.83-5.38-68.6,13.04-77.94,22.09-1.3,1.26-5.26,5.4-11.49,6.8-4.16.93-6.47,0-10.67,0-7.43,0-12.58,2.91-17.23,5.1-6.62,3.11-17.3,7.14-35.09,11.04v-67.11h184.41" style="fill: #754c24;"/>
      <path d="M48.24,711.61c-8.09,4.22-10.35,12.19-11.12,15.04-4.63,17.32,8.91,33.52,18.41,62.52,1.24,3.8,2.65,8.53,0,12.66-3.4,5.3-10.45,4.89-13.81,11.08-.28.51-2.29,4.37-.92,8.71,2.29,7.27,12.94,12.26,20.25,10.29,2.23-.6,4.76-2.01,11.05-12.66,6.38-10.81,9.58-16.22,10.13-20.58,1.89-15.06-12.39-19.25-10.13-33.24,1.44-8.92,7.43-8.37,10.73-18.99,3.46-11.12,2.04-28.32-10.73-34.82-6.81-3.47-16.62-3.78-23.86,0Z" style="fill: #754c24;"/>
      <path d="M463.6,711.61c8.09,4.22,10.35,12.19,11.12,15.04,4.63,17.32-8.91,33.52-18.41,62.52-1.24,3.8-2.65,8.53,0,12.66,3.4,5.3,10.45,4.89,13.81,11.08.28.51,2.29,4.37.92,8.71-2.29,7.27-12.94,12.26-20.25,10.29-2.23-.6-4.76-2.01-11.05-12.66-6.38-10.81-9.58-16.22-10.13-20.58-1.89-15.06,12.39-19.25,10.13-33.24-1.44-8.92-7.43-8.37-10.73-18.99-3.46-11.12-2.04-28.32,10.73-34.82,6.81-3.47,16.62-3.78,23.86,0Z" style="fill: #754c24;"/>
      <rect x="50.04" y="132.06" width="408.54" height="565.85" style="fill: #936c4a;"/>
      <polygon points="475.65 132.06 32.97 132.06 32.97 110.11 67.12 110.11 475.65 110.11 475.65 132.06" style="fill: #754c24;"/>
      <path d="M57.16,108.82c11.7-6.32,27.13-15.09,38.82-21.15,8.68-3.98,18.31-7.72,27.29-11.4,7.87-3.45,16.63-2.29,25.15-2.49,4.15-.02,8.51.05,11.91-1.91,5-2.82,8.46-8.77,9.9-14.48.76-3.31,1.42-7.1,3.17-10,1.02-1.69,2.41-3.09,4.4-3.91,5.59-1.7,8.22,5.18,13.79,5.04,2.25-.22,5.7,2.09,9.26.57,4-1.71,8.04-7.4,8.81-9.95.5-1.7-2.86-1.95-3.69-3.76-.87-1.91,0,0,.49-7.04.23-3.36,2.6-5.44,4.45-3.11,4.11,5.2,19.81,19.84,15.76,6.86-.43-1.38-6.79-4.15-6.05-4.85,2.21-2.64,1.59-7.37,3.67-10.32,2.24-4,7.56-6.64,12.41-9.46,4.05-2.26,8.43-4.77,12.56-6.57,2.56-1.05,5.26-1.87,5.02,1.9,0,29.59.02,78.08.01,107.86,0,2.46,0,3.73-.38,4.29-22.85,1.55-158.55,0-181.04.52" style="fill: #8c6239;"/>
      <path d="M450.9,108.82c-11.7-6.32-27.13-15.09-38.82-21.15-8.68-3.98-18.31-7.72-27.29-11.4-7.87-3.45-16.63-2.29-25.15-2.49-4.15-.02-8.51.05-11.91-1.91-5-2.82-8.46-8.77-9.9-14.48-.76-3.31-1.42-7.1-3.17-10-1.02-1.69-2.41-3.09-4.4-3.91-5.59-1.7-8.22,5.18-13.79,5.04-2.25-.22-5.7,2.09-9.26.57-4-1.71-8.04-7.4-8.81-9.95-.5-1.7,2.86-1.95,3.69-3.76.87-1.91,0,0-.49-7.04-.23-3.36-2.6-5.44-4.45-3.11-4.11,5.2-19.81,19.84-15.76,6.86.43-1.38,6.79-4.15,6.05-4.85-2.21-2.64-1.59-7.37-3.67-10.32-2.24-4-7.56-6.64-12.41-9.46-4.05-2.26-8.43-4.77-12.56-6.57-2.56-1.05-5.26-1.87-5.02,1.9,0,29.59-.02,78.08-.01,107.86,0,2.46,0,3.73.38,4.29,22.85,1.55,158.55,0,181.04.52" style="fill: #8c6239;"/>
      <polygon points="475.65 719.87 32.97 719.87 32.97 697.92 67.12 697.92 475.65 697.92 475.65 719.87" style="fill: #754c24;"/>
      <rect id="bak_i_skap" data-name="bak i skap" x="79.05" y="166.98" width="348.03" height="507.45" style="fill: #c69c6d;"/>
      <rect id="stang" x="47.06" y="187.91" width="407.68" height="8.12" style="fill: #754c24;"/>
    </g>
    <path d="M78.34,674.43c-9.43,7.83-18.86,15.66-28.29,23.49h401.48c-8.35-7.83-16.7-15.66-25.05-23.49" style="fill: #a67c52;"/>
    <path d="M78.39,168.64c-9.45-12.19-18.9-24.38-28.34-36.57h402.19c-8.36,12.19-16.73,24.38-25.09,36.57" style="fill: #a67c52;"/>
  </g>
  <g id="Layer_3" data-name="Layer 3">
    <g id="bogle">
      <path d="M106.09,245.22c-.6-1.45,7.39-5.62,16.94-13.79,6.7-5.74,11.63-11.28,14.88-15.25.9-5.62,5.25-9.81,10.33-10.11,5.5-.33,10.57,4,11.57,10.11,5.71,5.54,12.04,11.27,19.01,17.03,6.4,5.29,12.64,10.02,18.6,14.24-1.99.32-5.06.6-8.68,0-18.61-3.07-23.71-24.68-36.98-26.25-4.85-.57-11.89,1.4-21.28,12.9-2.9,2.84-7.69,6.8-14.46,9.34-3.45,1.3-9.42,2.98-9.92,1.78Z" style="fill: #282214;"/>
      <path d="M149.12,206.05v-7.7c3.77.09,6.86-2.44,7.29-5.45.56-3.93-3.53-7.82-7.29-7.15-2.45.44-4.52,2.77-4.97,5.77" style="fill: none; stroke: #4e4e56; stroke-miterlimit: 10;"/>
    </g>
    <g id="bogle-2" data-name="bogle">
      <path d="M224.86,245.39c-.6-1.45,7.39-5.62,16.94-13.79,6.7-5.74,11.63-11.28,14.88-15.25.9-5.62,5.25-9.81,10.33-10.11,5.5-.33,10.57,4,11.57,10.11,5.71,5.54,12.04,11.27,19.01,17.03,6.4,5.29,12.64,10.02,18.6,14.24-1.99.32-5.06.6-8.68,0-18.61-3.07-23.71-24.68-36.98-26.25-4.85-.57-11.89,1.4-21.28,12.9-2.9,2.84-7.69,6.8-14.46,9.34-3.45,1.3-9.42,2.98-9.92,1.78Z" style="fill: #282214;"/>
      <path d="M266.89,206.23v-7.7c3.77.09,6.86-2.44,7.29-5.45.56-3.93-3.53-7.82-7.29-7.15-2.45.44-4.52,2.77-4.97,5.77" style="fill: none; stroke: #4e4e56; stroke-miterlimit: 10;"/>
    </g>
    <g id="Jakke">
      <path d="M259.24,393.65c-1-20.99-1.63-42.64-1.8-64.91-.06-8.4-.06-16.71,0-24.92,6.01-6.32,12.1-12.88,18.24-19.7,6.41-7.12,12.57-14.18,18.49-21.15,2.49-2.03,3.13-5.89,1.54-8.69-1.49-2.63-4.58-3.66-7.19-2.32.58.25,5.87,2.43,9.5-.59,3.99-3.31,4.94-12,0-19.12,6.25,4.25,12.5,8.5,18.75,12.75-2.19,3.25-4.94,7.84-7.45,13.73-1.03,2.42-4.84,11.7-6.42,24.81-2.02,16.73,1.06,30.11,2.05,35.35,2.79,14.67,3.57,37.17-6.16,70.7,14.74,3.77,22.01,6.47,21.83,8.11-.28,2.53-18.35,2.53-54.19,0" style="fill: #006837; stroke: #023f23; stroke-miterlimit: 10;"/>
      <path d="M238.81,235.36c-2.67.19-8.98,1.01-12.96,5.67-2.74,3.21-3.24,6.88-3.41,8.95-1.24,14.57,5.81,38.11,8.19,49.23,2.37,11.03,1.55,23.57-.09,48.63-1,15.25-2.74,28.23-4.38,38.19,2.33,2.31,8.14,7.43,17.38,9.55,7.22,1.65,13.26.72,16.45,0-.62-31.52-1.24-63.05-1.86-94.57h0c1.76-3.58,3.52-7.16,5.28-10.74-2.15-2.98-11.46-6.44-16.76-13.81-5.43-7.55-6.85-19.01-9-21.99l7.14-5.07c-2.59-1.79-5.17-3.58-7.76-5.37" style="fill: #006837; stroke: #023f23; stroke-miterlimit: 10;"/>
      <path d="M278.6,217.42c5.49,2.66,13.58,7.23,20.94,14.5,3.34,3.3,14.71,14.52,10.46,18.97-.67.7-3.31,2.89-13.73,1.16,7.63,4.21,10.17,8.36,11.16,10.91,4.89,12.59-10.91,29.94-41.38,40.58-2.66-2.28-5.32-4.56-7.98-6.84,6.16-7.06,13.98-17.84,18.95-32.16,5.76-16.62,5.28-31.09,4.02-40.37" style="fill: #023f23; stroke: #023f23; stroke-miterlimit: 10;"/>
      <path d="M256.52,216.73c-4.24,2.16-10.52,6-16.44,12.57-2.68,2.98-11.83,13.13-8.97,17.9.45.75,2.26,3.15,10.09,2.33-5.92,3.52-8.07,7.41-8.97,9.85-4.44,12.06,6.15,30.62,28.03,43.79,2.12-2.03,4.24-4.06,6.35-6.09-4.11-7.53-9.2-18.89-11.96-33.51-3.2-16.97-1.91-31.27-.37-40.37" style="fill: #023f23; stroke: #023f23; stroke-miterlimit: 10;"/>
      <path d="M315.2,244.88c-3.02,2.21-7.28,5.83-10.95,11.13-5.05,7.28-7.45,15.54-7.82,28.3-.46,15.59,2.68,18.56,4.17,34.79,1.68,18.3-.59,33.29-4.34,57.99-1.09,7.21-2.18,13.15-2.96,17.16,3.59.76,8.89,2.05,15.13,4.18,8.1,2.76,8.74,3.87,10.43,3.71,9.91-.95,16.72-41.62,14.08-86.28-1.01-17.12-3.81-41.63-12-70.98" style="fill: #023f23; stroke: #023f23; stroke-miterlimit: 10;"/>
      <path d="M224.47,242.33c-3.36.27-6.6,28.68-2.91,52.05.5,3.14,1.21,6.8,1.45,12.39.58,13.58-2.31,23.5-4.85,32.7-2.65,9.6-6.31,23.49-10.66,42.13,6.62,3.3,13.24,6.61,19.86,9.91.49-7.78,1.44-19.69,3.39-34.19,1.86-13.82,3.73-23.23,4.36-26.76,6.77-37.93-6.11-88.59-10.66-88.23Z" style="fill: #023f23; stroke: #023f23; stroke-miterlimit: 10;"/>
    </g>
    <g id="Jeans">
      <path d="M346.54,214.87c8.97,2.72,22.07,5.6,38.04,5.44,14.74-.15,26.91-2.84,35.5-5.44,1.57,33.42.85,60.35,0,78.03-3.02,62.62-12.24,101.46-10.14,175.11.15,5.11.31,9.27.42,11.8-3.19,1.19-6.71,2.29-10.57,3.18-10.27,2.37-19.44,2.45-26.63,1.81-4.93-59.73-9.86-119.46-14.79-179.19-3.1-5.6-6.2-11.19-9.3-16.79-.85-21.32-2.54-63.97-2.54-63.97v-7.44" style="fill: #0071bc; stroke: #2e3192; stroke-miterlimit: 10;"/>
      <path d="M365.59,239h36.36v25.74c-1.11,1.49-6.05,7.77-14.63,9.03-8.18,1.19-16.52-2.65-21.73-9.88" style="fill: #2e3192; stroke: #2e3192; stroke-miterlimit: 10;"/>
    </g>
    <g id="Kjole">
      <path d="M130.85,224.91s-4.57,3.37-8.86,4.59c-5.52,1.57-6.96-1.47-10.86,0-6.3,2.37-8.05,12.35-8.28,13.77-1.08,6.65,1.64,7.95,0,13.48-1.73,5.84-5.19,5.86-6,10.9-.77,4.8,1.54,9.95,4.86,12.91,4.25,3.78,8.2,2.22,12.11,4.3,4.32,2.3,8.52,9.01,7.6,28.68,3.14,2.2,6.28,4.4,9.43,6.6,5.61-2.74,13.35-5.67,22.85-6.88,3.71-.48,7.17-.62,10.28-.57-.53-1.83-1.6-6.37,0-11.76,1.88-6.36,6.25-9.84,7.71-10.9-4.03-3.72-5.01-6.91-5.14-9.18-.24-4.1,2.28-6.01,2.29-10.9,0-4.23-1.87-7.11-2.57-8.61-2.19-4.68-1.23-13.64,12.57-32.41-4.48-2.87-8.95-5.74-13.43-8.61-1.57,1.69-8.21,8.44-18.57,8.89-5.18.22-9.31-1.22-11.71-2.29l-3.95-1.85" style="fill: #eec1db; stroke: #c280c4; stroke-miterlimit: 10;"/>
      <path d="M178.56,227.1c-4.63,3.54-7.5,7.15-9.16,9.57-5.37,7.84-11.15,22.27-5.99,32.12.97,1.85,2.34,3.57,2.47,6.49.2,4.84-3.32,5.83-3.65,10.59,0,0-.14,1.93,4.71,12.3,3.5-.2,9.04-.38,15.85,0,8.95.5,10.94,1.45,14.09,0,6.45-2.97,9.41-12.15,8.81-19.13-.38-4.41-1.91-4.77-4.23-12.64-2.11-7.19-2.12-11.22-2.82-15.03-1.12-6.06-4.54-14.51-15.06-24.26l-3.75-.18c-1.4.19-1.79.21-1.79.21" style="fill: #c280c4; stroke: #662d91; stroke-miterlimit: 10;"/>
      <path d="M120.27,308.92l10.88,8.21c11.39-3.26,22.77-6.53,34.16-9.79,3.71,3.2,8.86,8.18,13.9,15.16,9.63,13.33,13.44,26.45,16.93,38.84,1.3,4.62,2.78,12.03,5.74,26.84,3.61,18.03,5.41,27.05,5.74,31.58,1.47,19.92-2.8,24.65,2.42,33.79,3.24,5.67,7.57,8.56,7.25,14.53-.3,5.63-4.39,7.41-3.63,12.32.81,5.24,5.83,5.6,6.95,11.05,1,4.89-2.71,6.24-3.33,12-1.14,10.67,10.58,15.53,8.77,24-1.22,5.69-6.82,4.89-8.77,11.05-1.45,4.6.57,8.52,8.85,24.63,7,13.63,10.47,20.52,9.29,24.63-1.52,5.26-7.06,10.85-13.3,11.68-1.35.18-2.5.11-3.32,0-.08.53-1.1,6.25-6.35,8.84-4.69,2.32-9.07.29-9.67,0-.44.97-2.05,4.21-5.74,6-4.8,2.32-9.28.32-9.98,0-2.29,1.25-5.35,2.61-9.1,3.47-6.65,1.53-12.29.76-15.68,0-1.06.93-7.06,5.98-15.11,4.74-4.04-.62-6.94-2.57-8.46-3.79-2.23,1.37-8.11,4.55-16.02,3.98-6.06-.44-10.5-2.88-12.7-4.3-1.24.68-8.55,4.51-16.63,1.26-4.27-1.72-6.9-4.67-8.16-6.32-2.11.51-5.86,1.09-10.28,0-2.55-.63-4.59-1.64-6.05-2.53-2.15.43-4.22-.86-4.84-2.84-.51-1.67.08-3.59,1.51-4.74-.25-.59-1.98-4.58-6.05-5.68-1.78-.48-3.32-.24-4.23,0-.26-1.93-.46-4.81,0-8.21,1.76-12.87,11.06-17.49,9.37-24.95-1.13-4.96-5.6-4.47-6.05-9.16-.63-6.57,8.01-9.33,7.86-17.05-.09-4.74-3.38-5.35-3.02-9.79.52-6.42,7.6-7.61,7.86-12.95.28-5.69-7.68-6.78-8.46-12.95-.98-7.7,10.93-9.9,14.21-22.42,1.89-7.21-1.3-9.41.3-20.21,1.02-6.84,3.22-12.16,4.84-15.47,2.14-20.07,4.62-36.7,6.65-48.94,4.05-24.42,6.79-34.21,8.16-38.84,4.06-13.7,7.31-25.38,12.09-31.89l10.23-14.5,1.66-1.53" style="fill: #c280c4; stroke: #662d91; stroke-miterlimit: 10;"/>
    </g>
    <g id="jeans_bogle" data-name="jeans bogle">
      <path id="bogle-3" data-name="bogle" d="M420.7,211.21c-.92,2.44-2.73,1.77-6.28,1.88-.92,0-1.81,0-2.77,0-9.36,0-18.25,0-28.9,0-11.11-.16-23.83.32-33.26-.19-3.06-.97-2.68-7.44.89-7.31,13.46-.08,54.24-.08,67.7,0,2.74,0,3.37,3.2,2.66,5.53l-.03.09Z" style="fill: #282214;"/>
      <path d="M359.3,220.15c-.51.28-1.98.1-2.83.15-1.05-.06-3.12.15-3.84-.15-.47-.39-.2-1.89-.27-2.62.11-1.25-.25-3.16.2-4.17.61-.38,1.9-.14,2.83-.2,1.05.06,3.12-.15,3.84.15.47.39.2,1.89.27,2.62-.08,1.2.19,3.21-.15,4.17l-.06.06Z"/>
      <rect x="408.45" y="213.09" width="7.14" height="7.14"/>
      <path d="M383.02,205.54v-7.7c3.77.09,6.86-2.44,7.29-5.45.56-3.93-3.53-7.82-7.29-7.15-2.45.44-4.52,2.77-4.97,5.77" style="fill: none; stroke: #4e4e56; stroke-miterlimit: 10;"/>
    </g>
    <path d="M50.04,133.94c-16.68-11.51-33.36-23.02-50.04-34.53v576.9c16.68,7.83,33.36,15.66,50.04,23.49" style="fill: #603813;"/>
    <path d="M452.23,133.94c16.68-11.51,33.36-23.02,50.04-34.53v576.9c-16.68,7.83-33.36,15.66-50.04,23.49" style="fill: #603813;"/>
    <circle cx="266.61" cy="316.92" r="4.26" style="fill: #023f23;"/>
    <circle cx="266.61" cy="336.77" r="4.26" style="fill: #023f23;"/>
    <circle cx="266.61" cy="356.62" r="4.26" style="fill: #023f23;"/>
  </g>
  <g id="Layer_4" data-name="Layer 4">
    <ellipse cx="137.78" cy="332.52" rx="12.03" ry="13.66" style="fill: #a82282; stroke: #c280c4; stroke-miterlimit: 10;"/>
    <ellipse cx="263.4" cy="298.94" rx="12.03" ry="13.66" style="fill: #a82282; stroke: #c280c4; stroke-miterlimit: 10;"/>
    <ellipse cx="390.37" cy="336.77" rx="12.03" ry="13.66" style="fill: #a82282; stroke: #c280c4; stroke-miterlimit: 10;"/>
  </g>
</svg>