<?xml version="1.0" encoding="UTF-8"?>
<svg id="Layer_2" data-name="Layer 2" xmlns="http://www.w3.org/2000/svg" viewBox="0 0 1433.61 1056.07">
  <defs>
    <style>
      .cls-1 {
        fill: #d8ccbf;
      }
    </style>
  </defs>
  <g id="Layer_2-2" data-name="Layer 2">
    <g id="Layer_1-2" data-name="Layer 1-2">
      <path class="cls-1" d="M126.07,311.56c10.18-54.35,38.18-104,79.09-141.25,9.97-9.08,20.63-17.45,32.06-24.63,11.41-7.17,24.59-13.34,38.15-12.53,11.23.67,19.55,9.04,22.46,19.61,1.55,5.62,1.69,11.55.3,17.88-1.67,7.61-4.77,14.61-8.64,21.34-15.19,26.48-39,46.67-61.92,66.24-22.93,19.58-45.58,39.5-67.27,60.46-43.02,41.57-83,87.32-113.21,139.18-15.02,25.78-27.56,53.17-36.69,81.59-9.36,29.16-14.77,61.86-5.85,91.82,2.25,7.55,5.45,14.88,9.4,21.69,2.07,3.57,6.18,6.06,10.36,5.94,53.3-1.53,96.24-42.88,129.82-80.2,34.83-38.71,63.64-82.36,90.57-126.79,27.97-46.16,54.8-92.97,83.67-138.59,30.28-47.86,61.93-94.86,94.88-140.93,37.11-51.89,75.91-102.55,116.29-151.94,4.1-5.01,4.9-12.07,0-16.97-4.23-4.23-12.85-5.04-16.97,0-71.43,87.35-138.09,178.59-199.34,273.35-29.6,45.8-57.42,92.63-85.23,139.53-25.77,43.45-52.26,86.89-84.3,126.07-17.8,21.76-37.22,42.51-58.82,60.55-19.96,16.68-43.9,31.15-70.58,31.91,3.45,1.98,6.91,3.96,10.36,5.94-15.13-26.12-11.81-57.56-4-85.49,8.09-28.93,20.62-56.56,35.53-82.59,30.38-53.02,71.25-99.08,115.26-141.14,22.5-21.5,46.07-41.75,69.64-62.05,24.22-20.87,49.31-43.87,63.2-73.25,7.35-15.56,11.35-32.98,6.68-49.95-4.35-15.8-15.31-28.39-30.62-34.27-30.55-11.75-63.06,9.84-86.13,27.77-46.42,36.08-80.93,87.63-96.49,144.34-1.9,6.92-3.48,13.92-4.8,20.97-1.19,6.36,1.77,12.94,8.38,14.76,5.85,1.61,13.56-1.98,14.76-8.38h0Z"/>
      <path class="cls-1" d="M296.21,428.26c18.08-15.81,39.59-26.98,57.69-42.82l-18.85-14.54c-18.73,28.24-38.68,55.61-57.7,83.65-17.74,26.15-32.63,54-47.02,82.1-13.01,25.41-26.87,51.36-31.75,79.79-1.24,7.2,3.12,15.64,11.57,15.19,24.86-1.32,44.46-21.02,61.78-37.01s31.8-31.67,46.28-48.8c29.44-34.84,55.49-72.34,81.85-109.5s52.13-72.68,82.55-105.48c34.48-37.17,74.85-67.76,113.42-100.42,36.42-30.84,71.51-64.58,96.11-105.9,6.1-10.25,11.35-20.92,15.9-31.94,4.06-9.81,8.48-20.34,8.79-31.1.29-10.01-3.38-20.97-12.8-25.74-13.4-6.79-25.1,3.37-34.66,11.73-36.64,32.06-64.21,73.9-89.47,115.11-25.01,40.81-47.3,83.2-69.03,125.82-43.31,84.96-84.71,171.67-141.29,248.87-6.8,9.28-13.83,18.37-21.09,27.29l20.06,11.68c25.59-64.82,54.09-135.25,115.39-174.39,15.55-9.93,32.28-17.09,50.31-21.07l-13.55-17.63c-11.92,22.51-28.05,42.16-47.67,58.41-9.42,7.8-19.76,14.55-30.52,20.37-5.9,3.19-11.93,5.9-17.11,10.25-6.1,5.13-9.45,12.26-10.13,20.13-.63,7.33,1.42,14.72,3.24,21.76,2.09,8.07,4.27,16.12,6.56,24.13,1.94,6.79,3.94,13.56,6.02,20.3,2.27,7.38,4.17,15.84,9.7,21.58,13.12,13.62,29.35,4.25,41.22-5.27,10.89-8.74,20.82-18.62,30.18-28.97,18.89-20.87,35.85-43.41,54.53-64.48,17.71-19.98,36.28-39.18,55.38-57.82,38.81-37.88,79.78-73.46,120.7-109.03,40.88-35.54,81.8-71.1,120.54-108.99,19.44-19.01,38.31-38.61,56.28-59.02,8.79-9.99,17.35-20.17,25.66-30.56,8.15-10.21,16.5-20.1,21.52-32.27,4.54-11.02,6.28-24.63-.79-35.04-9.1-13.4-25.4-14.82-40.08-11.88-27.28,5.46-49.09,25.47-68.45,44.17-39.91,38.55-74.03,82.82-104.21,129.27-30.12,46.37-56.38,95.1-81.73,144.18-28.46,55.08-56.42,110.42-84.6,165.65-7.24,14.19-14.48,28.38-21.72,42.57-3.86,7.56-.2,14.58,7.17,17.63,28.63,11.84,60.05-1.23,84.41-16.87,26.23-16.84,50.75-36.77,74.39-57.02,23.59-20.21,46.29-41.43,68.82-62.81,10.49-9.96,23.92-19.98,30.21-33.35,5.82-12.39,5.06-28.53-5.78-38.1-13.16-11.61-30.71-6.16-43.56,2.85-11.08,7.77-21.56,16.49-31.12,26.07-18.8,18.84-34.55,41.09-45.76,65.24-5.77,12.42-10.6,25.3-14.08,38.55-1.91,7.28-4.59,15.42-2.16,22.83,2.66,8.13,10.92,12.54,19.17,11.84,13.46-1.13,25.37-12.28,34.89-20.99,10.02-9.17,18.78-19.72,26.49-30.89,15.11-21.89,25.71-46.98,32.88-72.52,1.55-5.52,2.77-12.01,4.8-16.93,1.77-4.32,3.89-6.85,8.74-8.26,7.13-2.08,14.74-2.79,22.05-3.98,8.47-1.38,16.94-2.76,25.41-4.13s16.29-2.65,24.43-3.97l-14.76-8.38c.57,4.17.44,13.67-.05,17.42-.83,6.39-2.55,12.7-4.61,18.79-4.09,12.05-10.43,23.77-17.08,35.38-14.26,24.89-30.41,49.37-37.62,77.48l23.14,6.38c10.63-43.2,35.45-80.68,61.88-115.8,6.25-8.3,12.29-17.22,19.29-24.91.68-.75,1.4-1.47,2.16-2.15,1.8-1.61.97-.8.54-.48.86-.63,1.78-1.13,2.68-1.7.39-.24,2.78-1.35,1.01-.64.73-.29,1.47-.45,2.21-.7,2.31-.8-.36-.47.48-.04,1.56.79-2.03-.63-2.01-.61-.69-.37-2.52-3.47-2.39-3.41.64.26-.71,7.26-.69,8.14.03,2.05.32,4.21.87,6.2,1.37,4.97,4.4,9.24,8.4,12.41,6.8,5.38,15.89,7.6,24.49,7.01,11.76-.81,20.58-5.78,29.53-13.12,7.87-6.45,14.36-13.63,24.08-15.54-4.52-5.88-9.03-11.75-13.55-17.63-37.97,52.66-72.84,107.51-104.4,164.24-4.6,8.28,1.29,17.51,10.36,18.06,24.17,1.44,43.34-15.18,59.45-31.07,18.01-17.76,36.56-34.94,55.78-51.4,18.75-16.05,38.05-31.44,57.92-46.07,10.37-7.63,20.87-15.07,31.51-22.32,4.6-3.13,9.17-6.4,14.1-8.98,3.91-2.05,8.4-3.04,11.27-2.73,25.15,2.72,28.33,33.86,27.37,54.32-.63,13.4,20.7,16.48,23.57,3.19,7.32-33.91-20.17-66.77-53.12-72.43-37.55-6.44-72.76,13.68-95.35,42.6-11.36,14.55-20.28,30.64-28.34,47.2-8.42,17.32-14.68,36.62-4.92,54.8,4.2,7.83,11.33,14.04,19.75,16.88,9.86,3.33,20.28.78,29.29-3.71,8.01-3.99,15.21-9.85,22.3-15.27,7.56-5.78,14.97-11.73,22.16-17.96,30.97-26.85,57.87-58.37,79.86-92.95l-21.93-9.25c-5.63,19.64-11.25,39.28-16.88,58.92-4.88,17.04-10.71,34.09-14.1,51.51-2.81,14.4-4.34,30.38.72,44.49,5.59,15.6,18.39,27.99,34.94,31.28,17.3,3.44,34.33-1.39,50.15-8.21s31.25-15.99,46.25-24.83c31.17-18.37,60.99-38.88,89.5-61.16,31.44-24.56,61-51.48,88.42-80.46,10.61-11.22-6.33-28.22-16.97-16.97-45.51,48.1-96.89,90.34-152.94,125.61-14.29,8.99-28.86,17.53-43.68,25.61-13,7.09-26.07,14.15-40.78,16.94-5.85,1.11-12.04,1.13-17.75-.75-1.89-.62-4.67-2-6.21-3.14-2.55-1.9-4.43-4.18-5.43-5.8-5.31-8.63-5.55-20.91-3.94-31.39,2.79-18.16,9.1-35.89,14.14-53.5,5.9-20.59,11.79-41.18,17.69-61.77,3.82-13.35-14.73-20.56-21.93-9.25-16.39,25.77-35.63,49.48-57.44,70.86-11.09,10.88-22.78,21.17-35.04,30.71-5.63,4.38-11.38,8.75-17.38,12.61-4.78,3.07-10.87,6.94-16.64,4.67,1.37.54-2.38-1.6-1.67-1.06-.11-.08-1.63-1.58-2.17-2.24-1.18-1.43-2.23-3.67-2.87-5.99-.12-.43-.66-3.43-.52-2.11-.2-1.85-.17-3.81.03-5.65.37-3.49,1.49-6.94,2.68-10.23,5.04-13.95,13.06-27.67,20.94-40.18,14.65-23.24,36.7-45.11,65.35-47.95,14.29-1.42,27.92,2.19,37.86,11.3,4.67,4.28,8.75,9.69,10.78,14.47.7,1.65,1.23,3.4,1.68,5.13.17.65.32,1.3.46,1.96.06.28.43,2.91.28,1.43.39,3.82.24,5.96-.38,8.82l23.57,3.19c1.22-26.01-3.59-53.37-26.15-69.4-10.17-7.22-22.98-10.44-35.28-7.96s-23.76,11.45-34.25,18.71c-44.33,30.7-86.42,64.72-125.6,101.76-9.95,9.41-19.36,19.52-29.78,28.42-8.93,7.63-18.85,13.39-30.35,12.7l10.36,18.06c31.56-56.74,66.43-111.58,104.4-164.24,2.75-3.81,1.78-9.91-.94-13.33-3.15-3.96-7.7-5.26-12.61-4.3-11.13,2.18-20.02,9.15-28.41,16.36-3.27,2.81-6.35,5.67-9.75,7.95-1.02.68-2.04,1.32-3.12,1.9-.37.2-2.06.83-.19.13-.89.33-1.8.61-2.71.85-.5.13-4.32.77-1.9.5-1.91.21-3.81.15-5.72.1-.53-.01-2.26-.43-.13.01-.88-.18-1.75-.43-2.63-.63-.69-.15-2.64-1.18-.53-.08-.6-.31-1.16-.63-1.74-.96-2.55-1.5,2.11.38-.51-.55l.72.97c-.65-1.17-.67-1.05-.07.36-.13-.23-.54-2.99-.41-1.31s.05-.65.12-1.14c.5-3.84.99-7.34.13-11.2-1.22-5.44-4.79-10.35-9.75-12.94-9.99-5.22-21.79-.54-30.03,5.79-8.92,6.86-15.28,17.33-22.07,26.18-14,18.27-27.61,36.9-39.42,56.68-13.62,22.79-24.8,47.29-31.16,73.13-3.69,14.99,19.3,21.37,23.14,6.38,7.13-27.81,24.09-51.73,38.11-76.88,14.77-26.49,25.47-54.19,21.26-84.95-.94-6.88-9.09-9.3-14.76-8.38-14.98,2.44-29.97,4.88-44.95,7.31-13.64,2.22-29.49,2.69-40.65,11.8-9.54,7.79-12.55,19.83-15.57,31.2s-6.62,22.38-11.1,33.13c-8.7,20.84-20.71,40.73-36.49,56.98-6.99,7.2-15.41,15.72-24.62,20.07,1.85-.87-2.03.59-1.9.53l.79-.09c-2.17-.1-1.56.16,1.83.8,6.65,3.76,1.82,6.99,3.5,3.08.36-.83.49-2.19.69-3.03,1.41-6.04,3.1-12.01,5.05-17.9,7.2-21.8,18.33-42.48,32.35-60.69,6.82-8.85,14.48-17.13,22.62-24.78s17.35-15.81,27.37-21.35c3.79-2.1,6.94-3.16,9.78-1.54-.81-.46.51,1.43.26.57.34,1.21.8,2.37.95,3.63-.32-2.62-.49,3.8-.07,1.14-.71,4.45-3.59,8.08-6.58,11.31-4.55,4.91-9.57,9.39-14.42,14-20.5,19.5-41.08,38.92-62.3,57.63-23.24,20.49-47.25,40.13-72.69,57.84-21.42,14.91-48.67,31.78-75.3,20.77l7.17,17.63c28.05-54.98,56.1-109.96,84.15-164.94,23.95-46.94,47.88-93.93,74.43-139.47,26.05-44.67,54.6-88.11,88.07-127.62,16.84-19.88,34.83-38.93,54.21-56.36,9.31-8.38,19.18-16.1,30.53-21.55,5.17-2.48,10.92-4.35,16.6-5.18,2.11-.31,4.47-.53,6.63-.29,2.64.3,4.14,1.13,5.08,2.09.28.28,1.32,1.79.26.31,2.15,3.01-1.26-1.87.59,1.26,1.15,1.94.29-.96.28,1.36,0,1.21.03,2.41-.1,3.62.19-1.82-.09.25-.15.54-.27,1.28-.61,2.54-1,3.78-1,3.2-1.47,4.13-3.07,7.09-5.39,9.93-13.3,18.69-20.43,27.39-16.16,19.72-33.26,38.67-50.98,57.01-35.64,36.89-73.74,71.3-112.3,105.1-77.52,67.97-157.7,134-224.26,213.21-17.21,20.48-33.41,41.91-52.54,60.68-4.57,4.48-9.29,8.8-14.21,12.89-2.05,1.71-4.1,3.43-6.31,4.93-1.1.75-2.23,1.38-3.37,2.05-3.1,1.81-.96.57-.9.5,1.36-1.34,1.6,2.82.86.14-.87-3.13-.12.04-.82-1.74-1.18-3.04-2.02-6.27-2.98-9.38-2.27-7.36-4.45-14.75-6.55-22.16-1.92-6.79-3.77-13.6-5.55-20.42-1.22-4.67-4.58-12.34-2.67-17.2,1.22-3.09,6.22-5.05,9.56-6.78,5.66-2.92,11.23-5.97,16.63-9.34,21.03-13.15,39.87-29.89,55.14-49.44,7.77-9.94,14.71-20.37,20.62-31.52,5.01-9.46-3.23-19.91-13.55-17.63-75.44,16.68-125.07,81.77-155.81,148.36-9.67,20.95-18.18,42.41-26.65,63.87-4.33,10.97,12.65,20.77,20.06,11.68,58.82-72.25,102.16-154.76,144.08-237.52,20.86-41.19,41.53-82.5,64-122.85,22.34-40.12,46.07-80.43,74.79-116.38,7.21-9.03,14.81-17.76,22.89-26.02,4.05-4.13,8.21-8.14,12.51-12.01,1.94-1.74,3.91-3.46,5.9-5.14.27-.23,5.76-3.97,5.78-4.29-.06,1.12-3.47-1.24-3.5-1.26,2.22,1.87-.75-1.3.24.2.88,1.34-.4-2.48.2.48.15.72.37,1.42.51,2.15-.48-2.56-.02,1.1-.02,1.41,0,.79-.05,1.57-.07,2.36-.14,1.47-.14,1.56,0,.29-.09.56-.21,1.11-.35,1.67-2.89,10.01-6.48,19.73-10.99,29.13-19.28,40.2-50,73.3-82.91,102.79-37.07,33.21-77.49,62.58-113.27,97.26-31.8,30.82-59.19,65.8-85.22,101.53-50.7,69.6-97.12,144.17-164.55,199.27-7.22,5.9-15.67,12.55-25.35,13.06,3.86,5.06,7.71,10.13,11.57,15.19,4.2-24.5,15.32-46.55,26.49-68.49,8.87-17.43,17.88-34.8,27.56-51.8,12.77-22.41,27.47-43.42,42.32-64.47,12.82-18.17,25.38-36.51,37.67-55.04,3.27-4.93,1.44-12.1-3.09-15.48-4.98-3.72-11.14-3.1-15.76.94-18.08,15.81-39.59,26.98-57.69,42.82-4.88,4.27-4.37,12.6,0,16.97,4.84,4.84,12.08,4.28,16.97,0h0l.04.02Z"/>
      <path class="cls-1" d="M350.53,639.41c-17.01,30.71-31.42,62.92-45.58,95.02-19.35,43.86-37.64,88.21-54.97,132.9-9.76,25.16-19.19,50.44-28.17,75.89-2.16,6.11,2.45,13.13,8.38,14.76,6.63,1.82,12.6-2.25,14.76-8.38,30.09-85.25,64.03-169.58,102.71-251.32,7.46-15.77,15.13-31.48,23.59-46.75,7.49-13.52-13.23-25.64-20.72-12.11h0Z"/>
      <path class="cls-1" d="M582.55,350.68c39.97-14.15,82.83-11.43,124.31-16.77,21.65-2.78,42.56-7.5,62.42-16.78,17.83-8.32,33.84-19.92,49.39-31.85,17.8-13.65,35.26-27.82,54.84-38.89,13.45-7.6,1.36-28.34-12.11-20.72-34.13,19.29-61.67,48.28-96.3,66.76-36.33,19.39-78.1,19.23-118.12,22.32-23.93,1.84-48.08,4.73-70.82,12.78-6.11,2.16-10.19,8.19-8.38,14.76,1.63,5.91,8.62,10.55,14.76,8.38h0Z"/>
      <path class="cls-1" d="M1029.93,328.39c10.66-14.06,26.28-24.14,43.04-29.24,14.73-4.49,8.45-27.66-6.38-23.14-23.22,7.07-42.76,20.99-57.38,40.27-3.92,5.17-.82,13.42,4.31,16.42,6.16,3.6,12.49.88,16.42-4.31h-.01Z"/>
      <path class="cls-1" d="M388.19,309.61c-10.2-1.1-22.43-1.9-28.32,8.61s-.11,23.96,10.66,28.97,23.64,3.31,32.14-4.61c4.61-4.3,6.03-11.2,4.37-17.16-1.75-6.3-6.48-10.22-11.47-13.99s-13.42-.82-16.42,4.31c-3.6,6.15-.88,12.5,4.31,16.42,1.9,1.44.43,1.31.31-1.75,3.84-4.81,4.57-6.58,2.2-5.32-.25.12-.5.23-.75.35,0,0-3.21.67-2.81.7.59.04-2.53-.47-2.36-1.01.14-.46,1.29,1.88,1.31,2.66-.2,2.45-1.52,4.14-3.96,5.07-1.02-.08-.74-.12.84-.12,3.31-.09,6.68.52,9.96.88,6.45.7,12-6.01,12-12,0-7.07-5.53-11.3-12-12h-.01Z"/>
      <path class="cls-1" d="M305.3,704.38c21.33-13.52,43.5-25.67,66.42-36.28,10.97-5.08,22.11-9.79,33.4-14.11,5.36-2.05,10.77-4.33,16.3-5.88.35-.1,4.79-1.24,4.82-.64.02.32-5-2.18-3.21-2.92-.58.24-1.45,6.64-1.61,7.26-.61,2.38-1.28,4.75-2.01,7.1-1.39,4.44-3.1,9.08-4.8,12.81-4.12,9.08-9.19,17.72-14.94,25.86-11.32,16.03-26.21,30.46-41.53,43.21-18.18,15.13-37.96,28.23-57.95,40.82l14.54,18.85c17.76-15.22,39.01-26.21,61.53-32.42,11.05-3.05,22.48-5.24,33.96-5.56,5.32-.15,10.7.04,15.76,1.88,3.88,1.42,7.4,4.15,8.99,6.23,3.13,4.1,4.01,6.9,5,11.82.49,2.41.52,8.8.09,11.17-1.94,10.64-8.04,20.15-14.79,28.41-15.54,19-32.99,37.01-51.01,53.68-35.41,32.75-79.38,59.97-128.95,61.32-9.98.27-23.88.48-32.52-3.46.81.37-2.08-1.1-2.02-1.23.2-.39,1.34,1.57,1.35,1.6,1.2,2.8-.55,2.16-.11,3.35.28.75-2.65,1.27.56-.07,4.15-1.74,9.41-3.9,14.45-5.74,23.08-8.41,46.19-16.77,69.2-25.36,89.61-33.47,179.79-70.75,256.2-129.44,9.88-7.59,19.55-15.43,28.89-23.68,8.63-7.62,18.42-15.39,24-25.67,5.87-10.82,7.13-24.23-2.63-33.26-11.34-10.49-26.96-5.53-37.6,3.08-9.57,7.74-17.2,18.75-23.91,28.96-6.76,10.28-12.51,21.19-17.71,32.33s-9.88,22.48-14.47,33.86c-3.98,9.84-7.12,19.38-8.12,30.02-.89,9.49.58,20.03,6.33,27.87,7.78,10.62,20.69,14.5,33.41,11.82,12.26-2.58,23.53-10.46,33.86-17.23,10.13-6.63,19.88-13.84,29.31-21.45,35.8-28.88,65.95-65.31,87.49-105.97,5.38-10.15,10.11-20.59,14.5-31.21-7.71-2.13-15.43-4.25-23.14-6.38-14.3,45.27-28.6,90.53-42.91,135.8,7.71,2.13,15.43,4.25,23.14,6.38,5.67-26.55,13.89-52.66,25.05-77.43,5.56-12.34,11.75-24.39,18.54-36.09,3.25-5.6,6.64-11.12,10.17-16.56,1.51-2.33,2.99-4.84,4.52-6.61-.25.28,2.89-2.69,1.83-1.89,3.07-2.32.61,0,.45-.16.07.07-2.09.02-1.77-.53.06-.1,2.6,2.65,1.61,1.47,1.72,2.04,2.97,4.52,4.43,6.75,3.1,4.73,6.72,9.23,10.97,12.98,8.29,7.33,18.17,12.69,28.82,15.69,21.98,6.2,45.47,2.18,63.3-12.2,5.43-4.38,10.18-9.75,16.03-13.61,5.15-3.4,10.22-5.36,16.39-6.54,11.5-2.2,23.94.46,34.21,7.18,5.43,3.55,13.26,1.09,16.42-4.31,3.6-6.15.88-12.5-4.31-16.42-18.99-14.36-44.57-19.16-67.67-13.94-21.55,4.87-40.57,19.93-50.58,39.59-10.87,21.36-14.67,53.48,10.89,65.79,21.71,10.46,48.49,6.53,68.41-6.18,23.12-14.75,36.68-39.85,43.51-65.78,1.65-6.26-2.09-13.03-8.38-14.76-6.9-1.9-12.27,2.37-14.76,8.38-27.72,66.92-37.26,140.31-68.47,205.87-14.88,31.26-34.75,59.25-60.93,82.04-25.22,21.96-55.34,38.5-87.25,48.4-8.25,2.56-16.63,4.71-25.1,6.42-4.11.83-8.25,1.59-12.41,2.18-1.47.21-2,.31-3.87.41-.89.05-1.8.08-2.69.07-.01,0-3.83-.37-2.06-.11-1.32-.19-.93.16-.68.02l-.53-.29c-.71-.42-.71-.38,0,.11-.06.07.43.57.45.54.75-.99,1.17-4.23,1.64-5.49.66-1.77,1.39-3.51,2.15-5.24,3.61-8.23,7.8-16.23,12.4-23.95,17.88-29.97,42.63-55.28,69.8-76.94,62.35-49.71,138.1-79.61,207.18-118.36,70.5-39.54,137.49-85.2,200.23-136.15,7.75-6.29,15.42-12.67,23.03-19.12,4.95-4.19,4.32-12.65,0-16.97-4.9-4.9-12.01-4.2-16.97,0-63.54,53.85-131.97,101.81-204.13,143.4-36.91,21.27-75.03,40.15-112.82,59.76-36.49,18.94-72.63,39.01-105.32,64.09-30.12,23.11-57.45,49.97-77.97,82.1-4.98,7.8-9.51,15.89-13.5,24.24s-9.73,18.78-9.7,28.61c.04,11.48,7.91,20.52,18.99,22.88,9.18,1.95,18.66-.01,27.74-1.64,72.79-13.05,138.71-57.46,177.57-120.39,40.29-65.24,51.45-142.68,76.41-214.04,3.07-8.79,6.38-17.5,9.94-26.1-7.71-2.13-15.43-4.25-23.14-6.38-4.5,17.06-11.93,33.55-25.08,45.7-11.61,10.73-28.95,17.11-44.14,14.01-7.19-1.47-14.23-3.64-14.88-11.59-.57-6.96,1.28-14.78,3.91-20.88,6.17-14.29,18.09-25.51,33.04-29.99,18.36-5.5,38.08-1.38,53.61,10.36,4.04-6.91,8.08-13.82,12.11-20.72-22.84-14.93-55.25-15.08-77.47,1.23-6,4.4-11.14,9.73-16.9,14.39-3.72,3.01-8.07,5.36-11.13,6.43-9.44,3.3-18.69,3.5-27.67,1.35-9.74-2.34-17.62-6.47-24.37-13.71-2.98-3.2-4.2-5.92-7.22-10.23-4.26-6.08-9.4-11.52-16.89-13.33-17.15-4.15-27.13,12.18-34.84,24.42s-14.4,24.31-20.6,37c-14.66,30-25.74,61.69-32.71,94.34-3.22,15.07,18.47,21.18,23.14,6.38,14.3-45.27,28.6-90.53,42.91-135.8,1.95-6.18-2.3-13.09-8.38-14.76-6.89-1.89-12.28,2.37-14.76,8.38-16.99,41.14-43.34,78.36-75.61,108.91-16.14,15.28-33.76,28.83-52.7,40.47-4.68,2.88-9.5,6.15-14.64,8.16-2.28.89-4.86,1.73-7.33,1.65-.6-.02-1.33-.14-1.85-.21-1.88-.63-2.21-.71-.98-.24-.67-.34-1.33-.72-1.95-1.13.53.36,1.66.78-.09-.16-1.87-1,.24,1-.76-.86-.34-.63-.71-1.22-1.03-1.86,1.16,2.27-.21-.83-.32-1.21-.3-1.09-.55-2.2-.71-3.32.09.65.04,1.96.06-.31.02-2.46-.06-4.89.17-7.35.37-4-.46,2.17.26-1.83.15-.84.31-1.67.49-2.51.53-2.48,1.19-4.93,1.95-7.35,1.63-5.13,3.8-10.1,5.83-15.08,4.37-10.75,8.93-21.43,14.07-31.83,5.32-10.76,11.25-21.23,18.2-31.02,3.13-4.41,6.53-8.59,10.17-12.6,3.11-3.42,7.04-7.78,11.72-8.26-1.42.15-1.42-1-.45.5-.36-.56-.68-1.13-.99-1.69-.59-1.07-.32,1.95.11-.04-.87,4.06-2.64,7.03-5.51,10.18-7.88,8.64-17.31,16.27-26.27,23.77-17.59,14.72-36.25,28.1-55.58,40.45-80.71,51.58-171.4,84.47-260.94,117.06-11.56,4.21-23.92,7.66-34.96,13.11-11.65,5.76-19.14,19.08-11.27,31.14,7.32,11.22,22.67,12.72,34.76,14,12.54,1.33,25.07.79,37.54-.92,51.39-7.03,95.5-36.32,132.3-71.47,17.97-17.16,35.87-35.44,50.92-55.25,13.84-18.22,22.46-41.92,13.55-64.31-4.76-11.95-13.33-21.09-25.34-25.92s-24.62-4.46-36.9-2.96c-25.1,3.06-49.36,10.66-71.38,23.19-10.46,5.95-20.24,13.04-29.38,20.87-10.37,8.88,3.09,26.06,14.54,18.85,40.14-25.28,80.38-53.42,108.09-92.64,6.46-9.15,11.99-18.9,16.41-29.19,4.65-10.85,10.03-23.74,10.12-35.74.06-7.43-3.39-14.61-9.92-18.4-6.25-3.63-13.84-3.35-20.64-1.74-13.37,3.17-26.57,9.61-39.19,14.96-29.15,12.37-57.24,27.11-83.99,44.07-13.01,8.25-.98,29.02,12.11,20.72h0v.04Z"/>
    </g>
  </g>
</svg>